<?xml version="1.0" encoding="UTF-8"?>
<svg id="Lager_1" data-name="Lager 1" xmlns="http://www.w3.org/2000/svg" viewBox="0 0 125.5 94.59">
  <defs>
    <style>
      .cls-1 {
        fill: #0eff00;
      }

      .cls-1, .cls-2 {
        stroke-width: 0px;
      }

      .cls-2 {
        fill: #fff;
      }
    </style>
  </defs>
  <path class="cls-2" d="M114.56,93.84c-4.35,2.54-11.5-1.61-16.08-9.3,5.84-2.95,10.96-6.66,15.11-10.89.26.41.51.79.74,1.2,4.58,7.91,4.69,16.42.23,18.98Z"/>
  <path class="cls-2" d="M11.88,73.66c4.17,4.23,9.27,7.91,15.11,10.86-4.58,7.68-11.7,11.81-16.06,9.3-4.46-2.56-4.35-11.06.23-18.98.23-.41.46-.79.72-1.18Z"/>
  <path class="cls-2" d="M29.58,46.45c-.03.2.1.78.08,1-.03.27-.38.64-.41.81,0,.07,0,.15.05.2.13-.44.44-.88.51-1.35.03-.24-.05-.47-.23-.66ZM37.11,49.95c-.05.47.03.59.03.71,0-.15.03-.27.03-.42.05-.54.13-1,.28-1.4-.13.37-.31.81-.33,1.1ZM37.11,49.95c-.05.47.03.59.03.71,0-.15.03-.27.03-.42.05-.54.13-1,.28-1.4-.13.37-.31.81-.33,1.1ZM29.58,46.45c-.03.2.1.78.08,1-.03.27-.38.64-.41.81,0,.07,0,.15.05.2.13-.44.44-.88.51-1.35.03-.24-.05-.47-.23-.66ZM29.58,46.45c-.03.2.1.78.08,1-.03.27-.38.64-.41.81,0,.07,0,.15.05.2.13-.44.44-.88.51-1.35.03-.24-.05-.47-.23-.66ZM37.11,49.95c-.05.47.03.59.03.71,0-.15.03-.27.03-.42.05-.54.13-1,.28-1.4-.13.37-.31.81-.33,1.1ZM37.11,49.95c-.05.47.03.59.03.71,0-.15.03-.27.03-.42.05-.54.13-1,.28-1.4-.13.37-.31.81-.33,1.1ZM29.58,46.45c-.03.2.1.78.08,1-.03.27-.38.64-.41.81,0,.07,0,.15.05.2.13-.44.44-.88.51-1.35.03-.24-.05-.47-.23-.66ZM29.58,46.45c-.03.2.1.78.08,1-.03.27-.38.64-.41.81,0,.07,0,.15.05.2.13-.44.44-.88.51-1.35.03-.24-.05-.47-.23-.66ZM37.11,49.95c-.05.47.03.59.03.71,0-.15.03-.27.03-.42.05-.54.13-1,.28-1.4-.13.37-.31.81-.33,1.1ZM80.32,51.62c-.03-.2-.05-.27-.1-.27s-.2.44-.38.44c-.05,0-.28,0-.31-.27-.03-.37.26-.69.2-1.22,0-.24-.31-.34-.59-.32-.38.02-.23.59-.36.59-.26,0-.18-.69-.44-.69-.28.02-.26.96-.23,1.3.03.22.08.42.08.54.03.37-.28.71-.28,1.03.05.81,1.23,1.15,1.64,1.13.44-.02.74-.56.72-1.08-.03-.15-.13-.32-.13-.47-.03-.24.18-.56.18-.71ZM80.35,58.77c-.03-.54.18-1.15.15-1.47-.03-.29-.18-.49-.41-.49-.33.02,0,.91-.31.93-.26,0-.44-.34-.46-.76,0-.15.05-.29.05-.61-.03-.22-.08-.29-.2-.27-.23,0-.51.49-.46,1.25.03.56.46.96.46,1.15,0,.1-.05.15-.18.17-.1,0-.36-.17-.49-.17-.15.02-.2.1-.18.27,0,.25.18.34.2.83,0,.2.1.34.26.32.08,0,.2-.05.26-.05.33-.02.33.37.49.34.92-.02,1.51-.56,1.51-.88-.05-.34-.69-.22-.69-.56ZM80.35,58.77c-.03-.54.18-1.15.15-1.47-.03-.29-.18-.49-.41-.49-.33.02,0,.91-.31.93-.26,0-.44-.34-.46-.76,0-.15.05-.29.05-.61-.03-.22-.08-.29-.2-.27-.23,0-.51.49-.46,1.25.03.56.46.96.46,1.15,0,.1-.05.15-.18.17-.1,0-.36-.17-.49-.17-.15.02-.2.1-.18.27,0,.25.18.34.2.83,0,.2.1.34.26.32.08,0,.2-.05.26-.05.33-.02.33.37.49.34.92-.02,1.51-.56,1.51-.88-.05-.34-.69-.22-.69-.56ZM80.32,51.62c-.03-.2-.05-.27-.1-.27s-.2.44-.38.44c-.05,0-.28,0-.31-.27-.03-.37.26-.69.2-1.22,0-.24-.31-.34-.59-.32-.38.02-.23.59-.36.59-.26,0-.18-.69-.44-.69-.28.02-.26.96-.23,1.3.03.22.08.42.08.54.03.37-.28.71-.28,1.03.05.81,1.23,1.15,1.64,1.13.44-.02.74-.56.72-1.08-.03-.15-.13-.32-.13-.47-.03-.24.18-.56.18-.71ZM37.11,49.95c-.05.47.03.59.03.71,0-.15.03-.27.03-.42.05-.54.13-1,.28-1.4-.13.37-.31.81-.33,1.1ZM29.58,46.45c-.03.2.1.78.08,1-.03.27-.38.64-.41.81,0,.07,0,.15.05.2.13-.44.44-.88.51-1.35.03-.24-.05-.47-.23-.66ZM29.58,46.45c-.03.2.1.78.08,1-.03.27-.38.64-.41.81,0,.07,0,.15.05.2.13-.44.44-.88.51-1.35.03-.24-.05-.47-.23-.66ZM37.11,49.95c-.05.47.03.59.03.71,0-.15.03-.27.03-.42.05-.54.13-1,.28-1.4-.13.37-.31.81-.33,1.1ZM80.32,51.62c-.03-.2-.05-.27-.1-.27s-.2.44-.38.44c-.05,0-.28,0-.31-.27-.03-.37.26-.69.2-1.22,0-.24-.31-.34-.59-.32-.38.02-.23.59-.36.59-.26,0-.18-.69-.44-.69-.28.02-.26.96-.23,1.3.03.22.08.42.08.54.03.37-.28.71-.28,1.03.05.81,1.23,1.15,1.64,1.13.44-.02.74-.56.72-1.08-.03-.15-.13-.32-.13-.47-.03-.24.18-.56.18-.71ZM80.35,58.77c-.03-.54.18-1.15.15-1.47-.03-.29-.18-.49-.41-.49-.33.02,0,.91-.31.93-.26,0-.44-.34-.46-.76,0-.15.05-.29.05-.61-.03-.22-.08-.29-.2-.27-.23,0-.51.49-.46,1.25.03.56.46.96.46,1.15,0,.1-.05.15-.18.17-.1,0-.36-.17-.49-.17-.15.02-.2.1-.18.27,0,.25.18.34.2.83,0,.2.1.34.26.32.08,0,.2-.05.26-.05.33-.02.33.37.49.34.92-.02,1.51-.56,1.51-.88-.05-.34-.69-.22-.69-.56ZM89.23,51.94c-.05-.73-.23-.78-.26-.98-.03-.32.05-.42.03-.56-.05-.59-.38-1.03-1.02-.98-.28.02-.36.42-.33.73,0,.1.05.32.05.37.03.17-.03.24-.13.27-.33.02-.26-.76-.59-.73-.08,0-.1.1-.1.29.03.2.28,1.47.31,1.67.03.27-.08.44-.08.69.03.15.15.27.31.27.2-.02.28-.12.41-.12.23-.02.46.59.85.56.44-.02.64-.66.56-1.47ZM89.23,51.94c-.05-.73-.23-.78-.26-.98-.03-.32.05-.42.03-.56-.05-.59-.38-1.03-1.02-.98-.28.02-.36.42-.33.73,0,.1.05.32.05.37.03.17-.03.24-.13.27-.33.02-.26-.76-.59-.73-.08,0-.1.1-.1.29.03.2.28,1.47.31,1.67.03.27-.08.44-.08.69.03.15.15.27.31.27.2-.02.28-.12.41-.12.23-.02.46.59.85.56.44-.02.64-.66.56-1.47ZM80.35,58.77c-.03-.54.18-1.15.15-1.47-.03-.29-.18-.49-.41-.49-.33.02,0,.91-.31.93-.26,0-.44-.34-.46-.76,0-.15.05-.29.05-.61-.03-.22-.08-.29-.2-.27-.23,0-.51.49-.46,1.25.03.56.46.96.46,1.15,0,.1-.05.15-.18.17-.1,0-.36-.17-.49-.17-.15.02-.2.1-.18.27,0,.25.18.34.2.83,0,.2.1.34.26.32.08,0,.2-.05.26-.05.33-.02.33.37.49.34.92-.02,1.51-.56,1.51-.88-.05-.34-.69-.22-.69-.56ZM80.27,52.79c-.03-.15-.13-.32-.13-.47-.03-.24.18-.56.18-.71-.03-.2-.05-.27-.1-.27s-.2.44-.38.44c-.05,0-.28,0-.31-.27-.03-.37.26-.69.2-1.22,0-.24-.31-.34-.59-.32-.38.02-.23.59-.36.59-.26,0-.18-.69-.44-.69-.28.02-.26.96-.23,1.3.03.22.08.42.08.54.03.37-.28.71-.28,1.03.05.81,1.23,1.15,1.64,1.13.44-.02.74-.56.72-1.08ZM37.11,49.95c-.05.47.03.59.03.71,0-.15.03-.27.03-.42.05-.54.13-1,.28-1.4-.13.37-.31.81-.33,1.1ZM29.66,47.45c-.03.27-.38.64-.41.81,0,.07,0,.15.05.2.13-.44.44-.88.51-1.35.03-.24-.05-.47-.23-.66-.03.2.1.78.08,1ZM114.18,20.29c-10.07,3.38-29.33,5.66-51.43,5.66s-41.36-2.28-51.43-5.66C4.17,27.44,0,36.14,0,45.54c0,.42,0,.81.05,1.22.33,9.63,5.1,18.47,12.91,25.57,4.23,3.89,9.35,7.25,15.14,9.94,9.94,4.65,21.85,7.35,34.65,7.35s24.69-2.69,34.63-7.32c5.81-2.69,10.94-6.05,15.16-9.94,7.81-7.13,12.58-15.97,12.91-25.59.05-.42.05-.81.05-1.22,0-9.41-4.17-18.1-11.32-25.25ZM23.82,57.64c-.2-.02-.28-.17-.26-.39.03-.24.13-.47.15-.71.08-.44-.13-.69-.38-.71-.38-.05-.51.17-.56.61-.05.39.31.86.26,1.18-.05.42-.41.1-.72,1.47-.08.24-.54.96-.59,1.42-.05.37.18,1.2.13,1.59-.13,1.03-.26,1.45-.64,1.4-.31-.02-.56-.32-.49-.81.05-.39.31-1.08.38-1.57.05-.42-.03-.73-.51-.78-.38-.05-.28,1.1-.9,1.03-.36-.05-.44-.73-.33-1.44.08-.56.23-1.15.28-1.4.1-.83.05-1.13-.18-1.15-.13-.02-.44.17-.54.15-.13-.02-.18-.17-.15-.44.1-.64.41-1.25.51-1.96.05-.34,0-.61.13-1.64.1-.66.05-1-.23-1.05-.67-.07-.87,1.03-.97,1.76-.1.71-.1.93-.15,1.32-.08.56-.56,1.86-.64,2.4-.1.69.26,1.35.18,1.76-.13.88-.33,1.15-.79,1.1-.31-.05-.44-.86-.79-.91-.28-.05-.41.05-.46.27-.03.27.1.81.05,1.25-.05.34-.2.49-.36.47-.41-.05.26-2.23-.51-2.35-.2-.02-.59.22-.9.2-.2-.05-.31-.15-.28-.32.05-.29.87-1.35,1-2.01.05-.37-.2-.71-.46-.73-.54-.1-.87.34-1.23.29-.2-.02-.31-.15-.28-.32.26-1.54,1-2.42,1.64-6.44.23-1.32.13-2.3-.2-3.72-.15-.47.08-1.84.13-2.18.08-.44.67-.47,1.25-.39,1.23.2,1.56.71,1.46,1.49-.44,2.79-.82,3.7-.95,4.48-.08.44.05,1.64.9,1.76.23.02.38-.15.46-.69.03-.15,0-.32.05-.56.13-.91.69-1.13.92-2.62.13-.86-.05-2.16,0-2.5.08-.49.38-1.03.97-.96.46.05.95.54,1.33.59.31.05.59-.15.85-.1.44.05.54.22.49.66-.05.25-.31.71-.33.98-.08.56.03,1.49-.05,2.08-.05.44-.18.78-.23,1.08-.1.76-.03,1.15.44,1.22.85.1.79-1.47,1.36-4.26.15-.78.36-1.1,1.49-.96.51.05.87-.02,1.15.02.44.05.61.29.56.73-.1.76-.92,1.96-1.31,4.9-.13,1.1-.05,1.32-.1,1.71-.1.83-.61,1.81-.74,2.65-.08.59.18,1.27.15,1.54-.05.39-.18.51-.44.49ZM44.77,52.84c-.03.2-.13.42-.36.42-.18-.02-.38-.61-.46-.61-.1,0-.26.15-.31.15-.13-.02-.31-.37-.41-.37-.54-.02-.1,1.2-.64,1.15-.38-.02-.15-.44-.31-.73-.18-.34-.44-.44-.36-1.2,0-.12.03-.25.05-.47.05-1.03.08-1.74-.2-1.76-.2,0-.38.39-.44.96-.03.29.13.78.1,1.1-.03.24-.1.44-.36.42-.33-.02-.33-.86-.31-1.03,0-.25.08-.51.1-.73.03-.27-.03-.44-.23-.47-.18-.02-.36.15-.38.32-.03.34.33.76.31.93,0,.22-.15.39-.33.39-.15-.02-.23-.12-.38-.12-.18-.02-.18.17-.18.29-.05.69.18.66.15,1.03-.05.49-.46,1.18-.49,1.59-.03.22.05.47.38.93.15.22.23.49.2.81-.05.73,0,1.08,0,1.15,0,.2-.15.47-.54.56-.31.07-.36.17-.36.29-.03.15.31.42.28.64,0,.1-.05.17-.15.24-.18.25-.18.49-.2.73-.03.42.2.59.46.59.1.02.44-.05.59-.05.15.02.36.22.54.22.9.02,1.23-1.89,1.28-2.67.03-.32-.03-.47,0-.66,0-.2.08-.32.23-.29.2,0,.41.25.59.25s.31-.15.49-.15.31.15.54.17c.15,0,.36-.17.46-.15.41.05.56.39.54.78-.03.59-.56,1.08-.59,1.76-.03.22,0,.49,0,.83-.05.69-.51,1.1-1.64,1.93-.23.2-.87.32-1.15.64-.13.1-.2.73-.44.73-.2-.02-.49-.91-.77-.91-.54-.05-.18,1.08-.82,1.05-.33-.02.05-1.4-.51-1.45-.36-.02-.1.73-.46.71-.26-.02-.18-.96-.51-1.08-.13-.07-.26-.1-.36-.2-.31-.27-.33-1.22-.49-1.22-.08,0-.05.24-.2.22-.15,0-.2-.2-.15-.64.03-.32.15-.42.15-.64.03-.27-.18-.24-.18-.47.03-.22.2-.51.2-.59.03-.17.03-.27-.05-.27-.1-.02-.13.12-.23.1-.1,0-.1-.07-.1-.15.05-.51.36-.78.46-1.93.13-1.4.15-3.21.28-5.12-.05.17-.13.22-.28.2-.61-.05-.15-1.49-.46-1.52-.26-.02-.33.54-.54.51-.31-.02-.38-.51-.77-.56-.51-.02-.69.29-.77,1.18-.03.2.03.54.03.71-.08.64-.26,1.13-.28,1.49-.13,1.13.33,1.4.18,2.91-.1,1.13-.56,1.64-.67,2.52-.05.61.13.93.1,1.4-.03.15-.13.37-.13.49-.03.24.23.73.2,1-.13.61-1.33.22-1.46,1.52-.05.61.2,1.08.13,1.81-.03.24-.28.42-.77.37-.38-.02-.56-.17-.54-.47.05-.39.33-.73.36-1.1.08-.73.18-1.81-.26-1.86-.2-.02-.23.37-.46.34-.38-.05-.41-1.57-.36-2.06.15-1.35.95-3.16,1-3.67.1-.98,0-1.15.05-1.47.05-.49.38-2.08.59-3.04.18-.76.49-1.67.51-2.08.05-.44-.38-.47-.59-.49-.67-.07-.61,1.4-1.23,1.35-.54-.05-.18-1.49-.95-1.57-.2-.02-.38-.12-.46-.29-.03.05-.05.12-.05.17-.05.64.23,2.3.15,2.94-.03.17-.08.25-.15.25-.05,0-.15-.05-.23-.05-.15-.02-.41,0-.46.34-.05.37.1.78.05,1.18-.1,1.05-.31,1.47-.31,1.59-.05.37.2,1.35.13,1.93-.03.34-.31.91-.38,1.52-.03.22-.05.64-.08.78-.03.37-.2.86-.23,1.08-.03.15.23.69.23.78-.05.51-1.08,0-1.13.39-.03.25.03,1.08,0,1.25-.03.24-.2.76-.56.73-.13-.02-.15-.22-.1-.59.03-.22.1-.83.13-1.05.05-.34.05-.54-.08-.54-.38-.05-.41,1.1-.79,1.05-.15,0-.23-.07-.2-.27.05-.37.13-.71.13-.76.03-.15-.05-.24-.31-.61-.36-.51-.38-.78-.33-1.13,0-.05.38-.91.49-1.74.1-.91.44-1.49.46-1.81.05-.44-.44-.56-.36-1.2.08-.71.77-1.27.85-2.06.13-1.08.08-1.81.1-1.96s.2-.76.23-.98c-.03-.17.03-.34-.26-.83-.15-.32-.2-.27-.15-.56.03-.29.46-.88.49-1.2-.03-.39-.08-.69-.03-.96.03-.29.26-.44.56-.42.18.02.64.27.92.32.23.02.46-.12.69-.1.26.02.64.2.87.47.03-.22.13-.27.33-.25.38.05.69.39,1.1.44.9.1,1.41-.32,2-.27,1.05.1,1.23.39,2.33.49.67.05,1.13-.22,1.46-.2.64.05.85,1.1.79,1.67,0,.07-.03.2-.08.32.28-.61.69-1,1.2-1.18,1.51-.49,1.84-.91,2.15-.88.44.05,1.72.64,2.48.98.87.32,1.61,1.98,1.56,3.06-.03.32-.2,1.03-.23,1.4-.03.49.08.61.08.83ZM54.07,49.49c0,.44-.08,1.1-.2,1.37-.08.15-.15.29-.23.44-.05.17-.1.37-.1.61-.03.76.31,1.93.31,2.16v.32c-.03.61.05,1,.05,1.08,0,.29-.18.76-.18,1-.03.27.23.78.23.96,0,.02-.03.12-.05.22-.05.15-.59.66-.59,1.32-.05,1.62.41,2.62.41,2.89-.03.56-.56,1.15-.79,1.15-.1,0-.36-.07-.44-.07s-.33-.02-.33.24c-.03.17.13.78.13.73,0,.17-.1.27-.31.27-.05-.02-.1-.12-.1-.37,0-.12.03-.24.03-.37,0-.44-.1-.64-.33-.64-.26,0-.56.34-.85.32-.13,0-.23-.15-.23-.42.03-.15.03-.32.03-.47,0-.24-.13-1.54-.13-1.74,0-.12.08-.44.08-.51,0-.1-.03-.15,0-.32,0-.44.49-1.18.51-1.67,0-.22.18-1.1.2-1.4,0-.29-.1-.47-.28-.47-.13,0-.61.56-.79.56-.1,0-.41-.12-.49-.12-.1,0-.23.1-.26.27,0,.02.1.2.08.59v.27c-.03.15-.1.34-.23.34-.15-.02-.36-.59-.59-.59-.08,0-.15.05-.15.17,0,.2.2.86.18,1.15,0,.37-.18,1.03-.18,1.22-.03.24.1.49.1.88,0,.07-.03.12-.05.2-.03.51.23,1.03.23,1.05,0,.24-.31.61-.46.61-.05,0-.08-.02-.18-.02-.33-.02-.87.02-1.02.47,0,.17.28.49.26.64,0,.15-.1.24-.31.22-.15,0-.33-.17-.31-.34.03-.27.08-.47.1-.61,0-.32-.1-.49-.33-.49-.26-.02-.72.44-.85.44-.1,0-.18-.07-.18-.22,0-.07.23-.66.26-.91,0-.22-.2-.64-.18-.78,0-.17.38-.66.41-.83.03-.73-.69-.29-.64-1.27.03-.29.46-.93.49-1.25,0-.29.03-.56.05-.86.05-1.18.61-2.55.61-2.72.03-.49-.23-1.32-.38-1.32-.08,0-.2.2-.28.2-.13-.02-.15-.15-.15-.34.03-.49.56-2.08.61-3.01.03-.59,0-.96.03-1.32.03-.49.46-1.08,1.15-1.03.13,0,.41.07.59.1.13,0,.23-.05.38-.05.56.02.56.86.54,1.37-.08,1.54.46,1.86.44,2.42-.03.42-.56-.1-.61,1.03-.03.69.18,1.22.67,1.25.13.02.28-.05.44-.05.31.02.82.22.82.22.13,0,.18-.1.23-.22,0-.05-.15-.59-.15-.81.03-.39.05-.76.05-1.13.05-1.25.05-1.54.05-1.74,0-.32.23-.86.23-1.05,0-.39-.33-.56-.33-.69.03-.29.56-.56,1.05-.56.64.02.95.12,1.08.12.1,0,.51-.1.59-.1.59.12.61.93.59,1.98ZM61.24,50.15c-.41,0-.03,1.47-.49,1.47-.15,0-.23-.07-.26-.17-.13-.51-.15-.69-.23-.81-.31-.2-.59-.39-.87-.39-.51-.02-.56.54-.82.54-.15,0-.2-.05-.31-.05-.51-.02-.64.49-.64,1.18-.03,1.3.85,2.06,1.2,2.06.08,0,.82-.15.9-.15.36-.05.9-.05,1-.05.23,0,.41.24.41.56,0,.15-.23.54-.23.76,0,.47.46,1.62.46,1.93-.03.42-.38.96-.59.96-.49,0-.13-1.22-.72-1.22-.49,0-.1.83-.51.81-.28,0-.36-.73-.64-.73-.15,0-.33-.07-.49-.07-.2-.02-.31.02-.31.2,0,.2.15.42.13,1.42,0,.34-.33.93-.36,1.18,0,.34.33.81,1.38.83.13,0,.33-.02.54-.02.36,0,.97.17,1.28.17.1.02.23,0,.36,0,.36,0,.74.34.74.69,0,.25-.23.59-.23.78,0,.1.05.37.05.71,0,.27-.13.37-.36.37-.18,0-.92-.22-1.23-.22-.28,0-.51.2-.51.47.08.37.26.47.26,1.05,0,.17-.03.25-.23.25-.38,0-.64-1.64-1.08-1.64-.36-.02-.61.39-.61.56s.15.29.15.47c-.03.42-.15.47-.36.47-.77,0-.59-1.37-1-1.37-.08,0-.26.32-.46.32-.18,0-.54-.34-.72-.34-.1,0-.28.12-.38.12-.44,0-.28-.81-.31-.98v-.42c0-.1.03-.39.03-.54.03-.17.03-.34.03-.49.03-.71.23-2.3.23-2.99.03-.51.36-1.25.36-1.37,0-.2-.1-.32-.36-.32-.1,0-.23.07-.33.05-.2,0-.2-.24-.2-.37s0-.22.1-.42c.31-.47.36-1.13.38-1.59,0-.76.33-1.3.33-1.86,0-.15-.2-.73-.2-1.05,0-.22.05-.56.08-.78,0-.17-.1-.54-.1-.76,0-.12.08-.29.08-.39,0-.17-.23-.44-.23-.61.03-.34.38-.49.9-.49.1,0,.31.02.46.05.44,0,.51-.2.87-.2.2,0,.44.2.59.22.18,0,.23-.15.49-.15.31,0,.72.37,1.08.37.23,0,.46-.25.79-.22.23,0,.31.1.49.1.15,0,.26-.15.59-.15.18,0,.28.29.28,1.1,0,.59.33,2.6.31,3.4,0,.27-.13.42-.46.42-.2,0-.33-.12-.33-.34,0-.17.05-.76.05-.83,0-.78-.05-1.42-.2-1.45ZM70.36,60.39c-.46,1.13-.46,2.5-.46,3.01.03.12.05.44.05.76,0,.15-.08.34-.31.34-.28,0-.36-.15-.36-.34-.03-1.08-.28-1.3-1.02-1.3-.64.02-.9.51-.87,2.3.03.34.05.69.05,1,0,.29-.03.49-.28.49-.92,0-.13-3.28-1-3.28-.28,0-.41.17-.41.51,0,.17.08.56.08.73,0,.15-.08.24-.26.24-.38,0-.46-.2-.46-.39,0-1.27-.31-1.15-.79-1.71-.2-.2-.26-.61-.56-.61-.2,0-.23.59-.49.59-.72,0-.97-1.84-.95-2.84,0-.91.85-1.42,1.61-1.42.54,0,.85.22,1.05.78.38,1.22,1.08,1.52,1.61,1.52.72-.02,1-.73.97-1.42,0-.32-.15-.56-.44-.78-1.23-.98-1.02-1.35-1.61-2.13-.31-.39-1.05-.69-1.49-1.49-.31-.49-.31-1.49-.67-1.49-.33,0-.38.81-.72.81-.28,0-.41-.51-.41-.98,0-.32.23-.61.23-1.37,0-.44.03-1.27.13-1.81.13-.51,1.2-1.47,1.72-1.74.15-.05,2-.86,2.23-.86.05.02.08.02.13.02.77.05,1.43.32,2,.78.59.49,1.51,1.79,1.54,2.74.03.51-.15,1.03-.15,1.44.03.81,0,1.4-.2,1.4-.74,0-.36-2.28-.92-2.28-.74,0-.38,1.25-.79,1.25-.85.02-.28-2.13-.95-2.11-.18,0-.23.17-.23.39,0,.1.03.22.03.32,0,.24-.08.44-.36.44-.18,0-.36-.12-.36-.34,0-.34.08-.44.05-.81,0-.34-.15-.42-.33-.42-.36,0-.51.91-.51,1.54,0,1.1,1.08,2.16,2.41,2.84.74.39.97,1.2,1.18,1.4.41.44,1.25.54,1.28,1.57,0,.32,0,.61.05.73.1.34.18.76.18,1.08,0,.27-.03.51-.2.88ZM83.55,60.85c-.26.02-.28-.12-.36-.12-.31.02-.05,1.52-.54,1.57-.28,0-.44-.32-.69-.29-.51.02.03,2.03-.38,2.06-.2,0-.26-.27-.28-.39,0-.17-.03-.91-.03-1,0-.17-.05-.25-.26-.25-.2.02-.18.37-.41.37-.2.02-.41-.34-.72-.32-.2,0-.23.15-.38.17-.2,0-.36-.34-.59-.34-.2.02-.2.27-.2.44.03.27.1.61.13.76,0,.22-.05.47-.36.49-.72.02-.44-1.49-.82-1.47-.56.02-.08,1.4-.59,1.42-.15,0-.56-.05-.59-.54-.03-.69-.61-.47-.64-.88-.03-.61.18-1.13.15-1.86-.03-.51-.28-.49-.31-.83-.03-.56.15-.76.31-2.87.18-2.67.15-3.53.15-3.89-.03-.42-.08-.61-.18-.61-.33.02-.26.93-.54.93-.18,0-.2-.27-.23-.64-.03-.47.26-.88.23-1.62-.03-.22.08-.73.08-.91-.05-.78-.23-1.59-.23-1.62-.03-.51.38-1.03.79-1.05.15,0,.54.15.72.15.15,0,.51-.17.87-.2.08,0,.51.15.69.12.18,0,.67-.17.92-.2.33-.02.95.34,1.08.37,1.49.24,2.41,1.15,2.46,2.03.05.86.26,1.4.26,1.47.03.32.03.71-.05,1.3-.15,1.1.08,1.79-.38,1.81-.15,0-.15-.12-.31-.12-.18,0-.2.29-.49.32-.26,0-.31,0-.28.17.03.66,1.31.59,1.36,1.03,0,.17-.1.27-.1.32,0,.07.08.17.23.32.46.37.51.81.54,1.37.05.49.03.88.03,1.49.03.22.26.91.28,1.08.03.29-.1.47-.33.47ZM92.23,62.49c0,.07.1.29.15.64.05.73-.08,1.4-.33,1.42-.18.02-.23-.1-.26-.32-.03-.37-.03-.66-.03-.81-.05-.47-.26-1.49-.51-1.49-.41.05-.38.37-.61.39-.1.02-.23-.02-.23-.15-.03-.12.08-.54.05-.88-.03-.37-.15-.71-.38-1.1-.51-.81-.79-1.45-.82-1.81,0-.2.03-.32.03-.49-.05-.51-.56-.88-.59-1.22s.05-.42.03-.69c0-.15-.08-.24-.23-.22-.23,0-.49.12-.46.61.05.37.1.42.13.56,0,.1-.08.12-.13.12-.33.02-.26-.86-.56-.83-.08,0-.13.15-.1.42.03.2.23,1.27.23,1.42.03.24-.05,1.42.03,2.23.03.56.36,1.15.41,1.79.05.81.05,1.05-.2,1.05-.54.05-.31-.88-.72-.83-.28,0-.59.39-.56.69.03.34.2.86.23.93,0,.15-.05.24-.28.24-.26.02-.26-.22-.28-.42,0-.1,0-.39-.03-.56-.03-.32,0-.56-.61-.86-.46-.2-.46-.44-.49-.56,0-.15.36-.96.33-1.2-.05-.73-.56-1.84-.59-2.13-.08-.88.28-2.03.26-2.35-.05-.64-.54-2.11-.56-2.5-.05-.66.44-1.32.38-2.03-.05-.61-.49-1.3-.54-1.54-.05-.29-.36-.91-.38-1.15-.03-.29.08-.81.05-1.15,0-.07-.1-.29-.13-.44,0-.22.23-.37.41-.39.26-.02.92.27,1.13.27.26-.02.69-.17.92-.2.54-.02,1.31.02,1.84-.02,3.02.27,3.36,1.37,3.48,1.86.18.61.33,1.08.38,1.74.05.34-.15,1.08-.13,1.42.05.54,0,1.49.05,2.01.05.29.13.42.13.51.03.25-.15.49-.38.51-.2.02-.49-.42-.69-.42-.08.02-.13.1-.13.12.05.32.41.56.46.88,0,.17-.1.34-.08.59.03.17.08.34.2.54.31.51.36.59.49.86.18.44.18,1.42.38,1.76.18.34,1,1.1,1.05,1.57.1.88-1.28.96-1.2,1.62ZM100.78,60.97c-.15,0-.95-.12-1.23-.1-.28.02-.49.25-.46.51.13.37.33.47.38,1.03.03.17.03.25-.2.27-.36.05-.82-1.57-1.25-1.52-.36.05-.56.49-.54.64.03.17.18.29.2.44.03.42-.1.51-.31.51-.74.07-.74-1.3-1.15-1.25-.08,0-.2.34-.44.37-.18.02-.56-.27-.74-.25-.1,0-.28.15-.38.15-.44.05-.36-.76-.44-.93,0-.12-.03-.27-.03-.42-.03-.1-.03-.39-.03-.54-.03-.17-.05-.32-.05-.49-.08-.71-.08-2.3-.15-2.99-.05-.51.18-1.3.18-1.4-.03-.2-.13-.29-.38-.27-.1,0-.23.07-.33.1-.18,0-.23-.22-.26-.37,0-.1-.03-.22.05-.42.26-.49.23-1.15.18-1.64-.08-.73.18-1.32.13-1.86-.03-.17-.33-.73-.36-1.03-.03-.22,0-.59-.03-.78-.03-.17-.18-.54-.2-.76,0-.1.05-.29.05-.39-.03-.15-.28-.39-.31-.59-.03-.34.33-.54.82-.59h.49c.41-.05.49-.25.82-.29.2-.02.46.15.61.15.18-.02.23-.17.46-.2.31-.02.77.29,1.13.24.23-.02.44-.29.74-.32.23-.02.33.07.51.05.15-.02.23-.17.56-.22.18-.02.33.27.41,1.08.08.56.67,2.55.74,3.33.05.27-.08.44-.41.47-.2.02-.33-.07-.36-.29-.03-.17-.05-.76-.05-.83-.1-.73-.26-1.4-.38-1.4-.44.05.15,1.45-.33,1.49-.13.02-.23-.05-.26-.15-.18-.49-.26-.66-.33-.76-.33-.17-.64-.34-.92-.32-.51.07-.49.61-.74.64-.13.02-.2-.02-.31,0-.51.05-.56.56-.49,1.25.13,1.27,1.1,1.93,1.46,1.91.08-.02.79-.25.87-.25.36-.12.87-.17.97-.17.26-.02.44.2.49.49,0,.15-.15.56-.13.78.05.47.64,1.57.69,1.89.05.39-.26.98-.46,1-.49.05-.28-1.18-.87-1.13-.49.05,0,.83-.41.86-.28.05-.46-.69-.72-.64-.15,0-.33-.07-.51-.05-.2.02-.31.07-.28.25s.2.39.33,1.4c.03.32-.23.96-.2,1.2.03.34.41.76,1.46.66.13-.02.33-.05.54-.07.33-.05,1,.07,1.31.02.08,0,.2-.02.33-.05.36-.05.79.27.82.59.03.25-.13.61-.13.81.03.12.1.37.15.71.03.27-.08.39-.33.42ZM112.39,56.22c-.2.05-.33-.07-.36-.29-.03-.25,0-.49-.05-.73-.05-.44-.31-.61-.56-.59-.38.07-.44.32-.38.76.08.39.54.73.59,1.05.08.42-.36.2-.28,1.62.03.24-.23,1.03-.15,1.52.05.34.51,1.08.59,1.47.15,1.05.15,1.47-.26,1.54-.28.02-.61-.2-.69-.66-.05-.39,0-1.13-.08-1.62-.05-.39-.23-.69-.72-.61-.38.05.05,1.13-.54,1.2-.38.05-.64-.59-.74-1.3-.08-.54-.1-1.18-.13-1.4-.13-.83-.28-1.1-.51-1.08-.13.02-.36.27-.46.29-.13,0-.23-.12-.26-.39-.1-.64.03-1.3-.08-2.01-.05-.37-.18-.59-.33-1.62-.1-.69-.26-.98-.54-.96-.67.1-.54,1.2-.44,1.96.1.69.18.91.23,1.3.08.56,0,1.93.08,2.47.08.69.61,1.25.67,1.67.13.86,0,1.2-.46,1.25-.31.05-.67-.71-1.02-.66-.28.02-.38.15-.36.37.05.29.33.76.38,1.2.05.34-.05.51-.18.54-.44.05-.41-2.2-1.18-2.13-.2.02-.51.37-.82.42-.18.02-.33-.05-.33-.22-.05-.32.46-1.52.36-2.2-.05-.34-.36-.61-.64-.59-.51.05-.72.56-1.08.61-.23.02-.36-.07-.38-.25-.18-1.52.28-2.6-.23-6.61-.18-1.35-.54-2.25-1.28-3.53-.26-.42-.44-1.81-.46-2.13-.05-.47.49-.64,1.08-.71,1.23-.15,1.72.29,1.82,1.05.38,2.79.26,3.77.36,4.56.08.47.54,1.59,1.38,1.47.23-.02.33-.25.26-.78-.03-.15-.1-.29-.13-.54-.13-.91.36-1.27.13-2.77-.1-.86-.64-2.06-.69-2.4-.08-.49.08-1.1.67-1.18.46-.07,1.05.27,1.43.22.33-.02.56-.29.82-.32.44-.07.56.07.61.51.05.24-.05.76-.03,1.03.1.56.46,1.42.54,2.01.08.44.05.81.1,1.1.1.76.28,1.13.74,1.05.85-.1.36-1.59.1-4.43-.08-.81.05-1.15,1.18-1.32.49-.07.82-.22,1.1-.27.44-.05.67.12.74.56.13.76-.33,2.13.15,5.07.18,1.08.33,1.27.38,1.67.13.81-.1,1.91.05,2.72.08.59.51,1.2.56,1.47.08.39-.03.54-.28.56ZM88.98,50.96c-.03-.32.05-.42.03-.56-.05-.59-.38-1.03-1.02-.98-.28.02-.36.42-.33.73,0,.1.05.32.05.37.03.17-.03.24-.13.27-.33.02-.26-.76-.59-.73-.08,0-.1.1-.1.29.03.2.28,1.47.31,1.67.03.27-.08.44-.08.69.03.15.15.27.31.27.2-.02.28-.12.41-.12.23-.02.46.59.85.56.44-.02.64-.66.56-1.47-.05-.73-.23-.78-.26-.98ZM80.35,58.77c-.03-.54.18-1.15.15-1.47-.03-.29-.18-.49-.41-.49-.33.02,0,.91-.31.93-.26,0-.44-.34-.46-.76,0-.15.05-.29.05-.61-.03-.22-.08-.29-.2-.27-.23,0-.51.49-.46,1.25.03.56.46.96.46,1.15,0,.1-.05.15-.18.17-.1,0-.36-.17-.49-.17-.15.02-.2.1-.18.27,0,.25.18.34.2.83,0,.2.1.34.26.32.08,0,.2-.05.26-.05.33-.02.33.37.49.34.92-.02,1.51-.56,1.51-.88-.05-.34-.69-.22-.69-.56ZM80.27,52.79c-.03-.15-.13-.32-.13-.47-.03-.24.18-.56.18-.71-.03-.2-.05-.27-.1-.27s-.2.44-.38.44c-.05,0-.28,0-.31-.27-.03-.37.26-.69.2-1.22,0-.24-.31-.34-.59-.32-.38.02-.23.59-.36.59-.26,0-.18-.69-.44-.69-.28.02-.26.96-.23,1.3.03.22.08.42.08.54.03.37-.28.71-.28,1.03.05.81,1.23,1.15,1.64,1.13.44-.02.74-.56.72-1.08ZM37.14,50.66c0-.15.03-.27.03-.42.05-.54.13-1,.28-1.4-.13.37-.31.81-.33,1.1-.05.47.03.59.03.71ZM29.58,46.45c-.03.2.1.78.08,1-.03.27-.38.64-.41.81,0,.07,0,.15.05.2.13-.44.44-.88.51-1.35.03-.24-.05-.47-.23-.66ZM29.58,46.45c-.03.2.1.78.08,1-.03.27-.38.64-.41.81,0,.07,0,.15.05.2.13-.44.44-.88.51-1.35.03-.24-.05-.47-.23-.66ZM37.11,49.95c-.05.47.03.59.03.71,0-.15.03-.27.03-.42.05-.54.13-1,.28-1.4-.13.37-.31.81-.33,1.1ZM80.32,51.62c-.03-.2-.05-.27-.1-.27s-.2.44-.38.44c-.05,0-.28,0-.31-.27-.03-.37.26-.69.2-1.22,0-.24-.31-.34-.59-.32-.38.02-.23.59-.36.59-.26,0-.18-.69-.44-.69-.28.02-.26.96-.23,1.3.03.22.08.42.08.54.03.37-.28.71-.28,1.03.05.81,1.23,1.15,1.64,1.13.44-.02.74-.56.72-1.08-.03-.15-.13-.32-.13-.47-.03-.24.18-.56.18-.71ZM80.35,58.77c-.03-.54.18-1.15.15-1.47-.03-.29-.18-.49-.41-.49-.33.02,0,.91-.31.93-.26,0-.44-.34-.46-.76,0-.15.05-.29.05-.61-.03-.22-.08-.29-.2-.27-.23,0-.51.49-.46,1.25.03.56.46.96.46,1.15,0,.1-.05.15-.18.17-.1,0-.36-.17-.49-.17-.15.02-.2.1-.18.27,0,.25.18.34.2.83,0,.2.1.34.26.32.08,0,.2-.05.26-.05.33-.02.33.37.49.34.92-.02,1.51-.56,1.51-.88-.05-.34-.69-.22-.69-.56ZM89.23,51.94c-.05-.73-.23-.78-.26-.98-.03-.32.05-.42.03-.56-.05-.59-.38-1.03-1.02-.98-.28.02-.36.42-.33.73,0,.1.05.32.05.37.03.17-.03.24-.13.27-.33.02-.26-.76-.59-.73-.08,0-.1.1-.1.29.03.2.28,1.47.31,1.67.03.27-.08.44-.08.69.03.15.15.27.31.27.2-.02.28-.12.41-.12.23-.02.46.59.85.56.44-.02.64-.66.56-1.47ZM89.23,51.94c-.05-.73-.23-.78-.26-.98-.03-.32.05-.42.03-.56-.05-.59-.38-1.03-1.02-.98-.28.02-.36.42-.33.73,0,.1.05.32.05.37.03.17-.03.24-.13.27-.33.02-.26-.76-.59-.73-.08,0-.1.1-.1.29.03.2.28,1.47.31,1.67.03.27-.08.44-.08.69.03.15.15.27.31.27.2-.02.28-.12.41-.12.23-.02.46.59.85.56.44-.02.64-.66.56-1.47ZM80.35,58.77c-.03-.54.18-1.15.15-1.47-.03-.29-.18-.49-.41-.49-.33.02,0,.91-.31.93-.26,0-.44-.34-.46-.76,0-.15.05-.29.05-.61-.03-.22-.08-.29-.2-.27-.23,0-.51.49-.46,1.25.03.56.46.96.46,1.15,0,.1-.05.15-.18.17-.1,0-.36-.17-.49-.17-.15.02-.2.1-.18.27,0,.25.18.34.2.83,0,.2.1.34.26.32.08,0,.2-.05.26-.05.33-.02.33.37.49.34.92-.02,1.51-.56,1.51-.88-.05-.34-.69-.22-.69-.56ZM80.32,51.62c-.03-.2-.05-.27-.1-.27s-.2.44-.38.44c-.05,0-.28,0-.31-.27-.03-.37.26-.69.2-1.22,0-.24-.31-.34-.59-.32-.38.02-.23.59-.36.59-.26,0-.18-.69-.44-.69-.28.02-.26.96-.23,1.3.03.22.08.42.08.54.03.37-.28.71-.28,1.03.05.81,1.23,1.15,1.64,1.13.44-.02.74-.56.72-1.08-.03-.15-.13-.32-.13-.47-.03-.24.18-.56.18-.71ZM37.11,49.95c-.05.47.03.59.03.71,0-.15.03-.27.03-.42.05-.54.13-1,.28-1.4-.13.37-.31.81-.33,1.1ZM29.58,46.45c-.03.2.1.78.08,1-.03.27-.38.64-.41.81,0,.07,0,.15.05.2.13-.44.44-.88.51-1.35.03-.24-.05-.47-.23-.66ZM29.58,46.45c-.03.2.1.78.08,1-.03.27-.38.64-.41.81,0,.07,0,.15.05.2.13-.44.44-.88.51-1.35.03-.24-.05-.47-.23-.66ZM37.11,49.95c-.05.47.03.59.03.71,0-.15.03-.27.03-.42.05-.54.13-1,.28-1.4-.13.37-.31.81-.33,1.1ZM37.11,49.95c-.05.47.03.59.03.71,0-.15.03-.27.03-.42.05-.54.13-1,.28-1.4-.13.37-.31.81-.33,1.1ZM29.58,46.45c-.03.2.1.78.08,1-.03.27-.38.64-.41.81,0,.07,0,.15.05.2.13-.44.44-.88.51-1.35.03-.24-.05-.47-.23-.66ZM29.58,46.45c-.03.2.1.78.08,1-.03.27-.38.64-.41.81,0,.07,0,.15.05.2.13-.44.44-.88.51-1.35.03-.24-.05-.47-.23-.66ZM37.11,49.95c-.05.47.03.59.03.71,0-.15.03-.27.03-.42.05-.54.13-1,.28-1.4-.13.37-.31.81-.33,1.1ZM37.11,49.95c-.05.47.03.59.03.71,0-.15.03-.27.03-.42.05-.54.13-1,.28-1.4-.13.37-.31.81-.33,1.1ZM29.58,46.45c-.03.2.1.78.08,1-.03.27-.38.64-.41.81,0,.07,0,.15.05.2.13-.44.44-.88.51-1.35.03-.24-.05-.47-.23-.66ZM29.58,46.45c-.03.2.1.78.08,1-.03.27-.38.64-.41.81,0,.07,0,.15.05.2.13-.44.44-.88.51-1.35.03-.24-.05-.47-.23-.66ZM29.58,46.45c-.03.2.1.78.08,1-.03.27-.38.64-.41.81,0,.07,0,.15.05.2.13-.44.44-.88.51-1.35.03-.24-.05-.47-.23-.66Z"/>
  <ellipse class="cls-1" cx="62.75" cy="10.84" rx="43.54" ry="4.53"/>
  <path class="cls-2" d="M62.75,0C30.22,0,3.84,5.15,3.84,11.53s26.38,11.53,58.91,11.53,58.91-5.17,58.91-11.53S95.28,0,62.75,0ZM62.75,15.37c-25.46,0-46.1-2.87-46.1-6.4S37.29,2.56,62.75,2.56s46.1,2.87,46.1,6.4-20.64,6.4-46.1,6.4Z"/>
</svg>